<?xml version="1.0" encoding="UTF-8"?>
<!DOCTYPE svg PUBLIC "-//W3C//DTD SVG 1.1//EN" "http://www.w3.org/Graphics/SVG/1.1/DTD/svg11.dtd">
<!-- Creator: CorelDRAW 2017 -->
<svg xmlns="http://www.w3.org/2000/svg" xml:space="preserve" width="30px" height="30px" version="1.1" style="shape-rendering:geometricPrecision; text-rendering:geometricPrecision; image-rendering:optimizeQuality; fill-rule:evenodd; clip-rule:evenodd"
viewBox="0 0 0.72 0.72"
 xmlns:xlink="http://www.w3.org/1999/xlink">
 <defs>
  <style type="text/css">
   <![CDATA[
    .fil0 {fill:white}
   ]]>
  </style>
 </defs>
 <g id="Layer_x0020_1">
  <metadata id="CorelCorpID_0Corel-Layer"/>
  <path class="fil0" d="M0.59 0.14l-0.45 0c0,0.1 0,0.35 0,0.45l0.45 0c0,-0.1 0,-0.35 0,-0.45zm-0.08 -0.05l0 -0.07c0,-0.01 -0.01,-0.02 -0.02,-0.02 -0.01,0 -0.02,0.01 -0.02,0.02l0 0.07 -0.04 0 0 -0.07c0,-0.01 -0.01,-0.02 -0.03,-0.02 -0.01,0 -0.02,0.01 -0.02,0.02l0 0.07 -0.04 0 0 -0.07c0,-0.01 -0.01,-0.02 -0.02,-0.02 -0.01,0 -0.02,0.01 -0.02,0.02l0 0.07 -0.04 0 0 -0.07c0,-0.01 -0.01,-0.02 -0.03,-0.02 -0.01,0 -0.02,0.01 -0.02,0.02l0 0.07 -0.07 0c-0.03,0 -0.05,0.02 -0.05,0.05l0 0.07 -0.07 0c-0.01,0 -0.02,0.01 -0.02,0.02 0,0.02 0.01,0.03 0.02,0.03l0.07 0 0 0.04 -0.07 0c-0.01,0 -0.02,0.01 -0.02,0.02 0,0.01 0.01,0.02 0.02,0.02l0.07 0 0 0.04 -0.07 0c-0.01,0 -0.02,0.01 -0.02,0.02 0,0.02 0.01,0.03 0.02,0.03l0.07 0 0 0.04 -0.07 0c-0.01,0 -0.02,0.01 -0.02,0.02 0,0.01 0.01,0.02 0.02,0.02l0.07 0 0 0.08c0,0.03 0.02,0.05 0.05,0.05l0.07 0 0 0.06c0,0.01 0.01,0.02 0.02,0.02 0.02,0 0.03,-0.01 0.03,-0.02l0 -0.06 0.04 0 0 0.06c0,0.01 0.01,0.02 0.02,0.02 0.01,0 0.02,-0.01 0.02,-0.02l0 -0.06 0.04 0 0 0.06c0,0.01 0.01,0.02 0.02,0.02 0.02,0 0.03,-0.01 0.03,-0.02l0 -0.06 0.04 0 0 0.06c0,0.01 0.01,0.02 0.02,0.02 0.01,0 0.02,-0.01 0.02,-0.02l0 -0.06 0.08 0c0.03,0 0.05,-0.02 0.05,-0.05l0 -0.08 0.06 0c0.01,0 0.02,-0.01 0.02,-0.02 0,-0.01 -0.01,-0.02 -0.02,-0.02l-0.06 0 0 -0.04 0.06 0c0.01,0 0.02,-0.01 0.02,-0.03 0,-0.01 -0.01,-0.02 -0.02,-0.02l-0.06 0 0 -0.04 0.06 0c0.01,0 0.02,-0.01 0.02,-0.02 0,-0.01 -0.01,-0.02 -0.02,-0.02l-0.06 0 0 -0.04 0.06 0c0.01,0 0.02,-0.01 0.02,-0.03 0,-0.01 -0.01,-0.02 -0.02,-0.02l-0.06 0 0 -0.07c0,-0.03 -0.02,-0.05 -0.05,-0.05l-0.08 0zm-0.04 0.16l-0.22 0c0,0.1 0,0.12 0,0.22l0.22 0c0,-0.1 0,-0.12 0,-0.22zm-0.27 0c0,-0.03 0.02,-0.05 0.05,-0.05l0.22 0c0.03,0 0.05,0.02 0.05,0.05 0,0.1 0,0.12 0,0.22 0,0.03 -0.02,0.05 -0.05,0.05l-0.22 0c-0.03,0 -0.05,-0.02 -0.05,-0.05 0,-0.1 0,-0.12 0,-0.22z"/>
 </g>
</svg>
