<?xml version="1.0" encoding="UTF-8"?>
<!DOCTYPE svg PUBLIC "-//W3C//DTD SVG 1.1//EN" "http://www.w3.org/Graphics/SVG/1.1/DTD/svg11.dtd">
<!-- Creator: CorelDRAW 2017 -->
<svg xmlns="http://www.w3.org/2000/svg" xml:space="preserve" width="30px" height="30px" version="1.1" style="shape-rendering:geometricPrecision; text-rendering:geometricPrecision; image-rendering:optimizeQuality; fill-rule:evenodd; clip-rule:evenodd"
viewBox="0 0 0.59 0.59"
 xmlns:xlink="http://www.w3.org/1999/xlink">
 <defs>
  <style type="text/css">
   <![CDATA[
    .fil0 {fill:white}
   ]]>
  </style>
 </defs>
 <g id="Layer_x0020_1">
  <metadata id="CorelCorpID_0Corel-Layer"/>
  <path class="fil0" d="M0.3 0c0.16,0 0.29,0.13 0.29,0.3 0,0.16 -0.13,0.29 -0.29,0.29 -0.17,0 -0.3,-0.13 -0.3,-0.29 0,-0.17 0.13,-0.3 0.3,-0.3zm0.08 0.44c0,-0.02 -0.01,-0.04 -0.04,-0.05 0.12,-0.01 0.16,-0.1 0.1,-0.2 0,-0.01 0,-0.06 -0.01,-0.07 -0.03,0.01 -0.04,0.01 -0.07,0.03 -0.04,-0.01 -0.08,-0.01 -0.12,0 -0.03,-0.02 -0.04,-0.02 -0.07,-0.03 -0.01,0.01 -0.01,0.06 -0.01,0.07 -0.06,0.1 -0.02,0.19 0.1,0.2 -0.02,0.01 -0.03,0.02 -0.04,0.03 -0.02,0.02 -0.04,0.02 -0.06,0 -0.01,-0.01 -0.02,-0.03 -0.04,-0.04 0,0 -0.01,0 -0.01,0.01 0,0 0,0.01 0,0.01 0.03,0.02 0.03,0.05 0.06,0.06 0.02,0.01 0.04,0.01 0.05,0l0 0.08c-0.1,-0.04 -0.17,-0.13 -0.17,-0.24 0,-0.14 0.11,-0.25 0.25,-0.25 0.14,0 0.25,0.11 0.25,0.25 0,0.11 -0.07,0.2 -0.17,0.23l0 -0.09z"/>
 </g>
</svg>
