<?xml version="1.0" encoding="UTF-8"?>
<!DOCTYPE svg PUBLIC "-//W3C//DTD SVG 1.1//EN" "http://www.w3.org/Graphics/SVG/1.1/DTD/svg11.dtd">
<!-- Creator: CorelDRAW 2017 -->
<svg xmlns="http://www.w3.org/2000/svg" xml:space="preserve" width="30px" height="30px" version="1.1" style="shape-rendering:geometricPrecision; text-rendering:geometricPrecision; image-rendering:optimizeQuality; fill-rule:evenodd; clip-rule:evenodd"
viewBox="0 0 0.54 0.54"
 xmlns:xlink="http://www.w3.org/1999/xlink">
 <defs>
  <style type="text/css">
   <![CDATA[
    .fil0 {fill:white}
   ]]>
  </style>
 </defs>
 <g id="Layer_x0020_1">
  <metadata id="CorelCorpID_0Corel-Layer"/>
  <path class="fil0" d="M0.18 0.22l0 -0.04c0,-0.03 0.03,-0.07 0.07,-0.07l0.08 0c0.03,0 0.03,-0.04 0,-0.04l-0.16 0c-0.03,0 -0.05,-0.02 -0.05,-0.05 0,-0.03 0.04,-0.03 0.04,0 0,0.01 0,0.01 0.01,0.01l0.16 0c0.08,0 0.08,0.12 0,0.12l-0.08 0c-0.02,0 -0.03,0.02 -0.03,0.03l0 0.04 0.29 0c0.02,0 0.03,0.01 0.03,0.03l0 0.26c0,0.02 -0.01,0.03 -0.03,0.03l-0.47 0c-0.02,0 -0.04,-0.01 -0.04,-0.03l0 -0.26c0,-0.02 0.02,-0.03 0.04,-0.03l0.14 0zm0.22 0.17c0,0.01 0,0.01 0,0.01l0.07 0c0,0 0,0 0,-0.01l0 -0.1c0,0 0,0 0,0l-0.03 0c0,0 -0.01,0 -0.01,0l0 0.07 -0.03 0c0,0 0,0 0,0.01l0 0.02zm-0.03 -0.06l0.02 0c0.01,0 0.01,-0.01 0.01,-0.01l0 -0.03c0,0 0,0 -0.01,0l-0.02 0c-0.01,0 -0.01,0 -0.01,0l0 0.03c0,0 0,0.01 0.01,0.01zm-0.08 0l0.03 0c0,0 0.01,-0.01 0.01,-0.01l0 -0.03c0,0 -0.01,0 -0.01,0l-0.03 0c0,0 0,0 0,0l0 0.03c0,0 0,0.01 0,0.01zm0.18 0.1l-0.03 0c0,0 -0.01,0.01 -0.01,0.01l0 0.03c0,0 0.01,0 0.01,0l0.03 0c0,0 0,0 0,0l0 -0.03c0,0 0,-0.01 0,-0.01zm-0.14 -0.04c0,0.01 0,0.01 0,0.01l0.03 0c0,0 0,0 0,-0.01l0 -0.02c0,-0.01 0,-0.01 0,-0.01l-0.03 0c0,0 0,0 0,0.01l0 0.02zm-0.11 -0.06l0.03 0c0,0 0,-0.01 0,-0.01l0 -0.03c0,0 0,0 0,0l-0.03 0c0,0 0,0 0,0l0 0.03c0,0 0,0.01 0,0.01zm0.03 0.06c0,0.01 0,0.01 0.01,0.01l0.02 0c0.01,0 0.01,0 0.01,-0.01l0 -0.02c0,-0.01 0,-0.01 -0.01,-0.01l-0.02 0c-0.01,0 -0.01,0 -0.01,0.01l0 0.02zm-0.1 -0.06l0.03 0c0,0 0,-0.01 0,-0.01l0 -0.03c0,0 0,0 0,0l-0.03 0c0,0 -0.01,0 -0.01,0l0 0.03c0,0 0.01,0.01 0.01,0.01zm0.03 0.06c0,0.01 0,0.01 0.01,0.01l0.02 0c0.01,0 0.01,0 0.01,-0.01l0 -0.02c0,-0.01 0,-0.01 -0.01,-0.01l-0.02 0c-0.01,0 -0.01,0 -0.01,0.01l0 0.02zm0.21 0.04l-0.24 0c0,0 -0.01,0.01 -0.01,0.01l0 0.03c0,0 0.01,0 0.01,0l0.24 0c0.01,0 0.01,0 0.01,0l0 -0.03c0,0 0,-0.01 -0.01,-0.01zm-0.31 -0.1l0.02 0c0.01,0 0.01,-0.01 0.01,-0.01l0 -0.03c0,0 0,0 -0.01,0l-0.02 0c-0.01,0 -0.01,0 -0.01,0l0 0.03c0,0 0,0.01 0.01,0.01zm0 0.07l0.06 0c0,0 0,0 0,-0.01l0 -0.02c0,-0.01 0,-0.01 0,-0.01l-0.06 0c-0.01,0 -0.01,0 -0.01,0.01l0 0.02c0,0.01 0,0.01 0.01,0.01zm0 0.07l0.02 0c0.01,0 0.01,0 0.01,0l0 -0.03c0,0 0,-0.01 -0.01,-0.01l-0.02 0c-0.01,0 -0.01,0.01 -0.01,0.01l0 0.03c0,0 0,0 0.01,0zm0.43 0.04l-0.47 0 0 -0.26 0.47 0 0 0.26z"/>
 </g>
</svg>
