<?xml version="1.0" encoding="UTF-8"?>
<!DOCTYPE svg PUBLIC "-//W3C//DTD SVG 1.1//EN" "http://www.w3.org/Graphics/SVG/1.1/DTD/svg11.dtd">
<!-- Creator: CorelDRAW 2017 -->
<svg xmlns="http://www.w3.org/2000/svg" xml:space="preserve" width="30px" height="30px" version="1.1" style="shape-rendering:geometricPrecision; text-rendering:geometricPrecision; image-rendering:optimizeQuality; fill-rule:evenodd; clip-rule:evenodd"
viewBox="0 0 0.82 0.82"
 xmlns:xlink="http://www.w3.org/1999/xlink">
 <defs>
  <style type="text/css">
   <![CDATA[
    .fil0 {fill:white}
   ]]>
  </style>
 </defs>
 <g id="Layer_x0020_1">
  <metadata id="CorelCorpID_0Corel-Layer"/>
  <path class="fil0" d="M0.21 0.65l-0.1 0c-0.01,0 -0.02,0 -0.02,-0.01l0 -0.18c0,-0.01 0.01,-0.01 0.02,-0.01l0.1 0c0.01,0 0.02,0 0.02,0.01l0 0.18c0,0.01 -0.01,0.01 -0.02,0.01zm0 -0.35l-0.1 0c-0.01,0 -0.02,-0.01 -0.02,-0.02l0 -0.17c0,-0.01 0.01,-0.02 0.02,-0.02l0.1 0c0.01,0 0.02,0.01 0.02,0.02l0 0.17c0,0.01 -0.01,0.02 -0.02,0.02zm0.55 0l0 -0.25 -0.71 0 0 0.25c-0.02,0 -0.03,0.01 -0.05,0.02l0 -0.27c0,-0.03 0.02,-0.05 0.05,-0.05l0.71 0c0.03,0 0.06,0.02 0.06,0.05l0 0.27c-0.02,-0.01 -0.04,-0.02 -0.06,-0.02zm-0.38 0l-0.1 0c-0.01,0 -0.02,-0.01 -0.02,-0.02l0 -0.17c0,-0.01 0.01,-0.02 0.02,-0.02l0.1 0c0,0 0.01,0.01 0.01,0.02l0 0.17c0,0.01 -0.01,0.02 -0.01,0.02zm0.16 0l-0.1 0c-0.01,0 -0.01,-0.01 -0.01,-0.02l0 -0.17c0,-0.01 0,-0.02 0.01,-0.02l0.1 0c0.01,0 0.02,0.01 0.02,0.02l0 0.17c0,0.01 -0.01,0.02 -0.02,0.02zm0.17 0l-0.1 0c-0.01,0 -0.02,-0.01 -0.02,-0.02l0 -0.17c0,-0.01 0.01,-0.02 0.02,-0.02l0.1 0c0.01,0 0.02,0.01 0.02,0.02l0 0.17c0,0.01 -0.01,0.02 -0.02,0.02zm-0.08 -0.03l0.06 0 0 -0.15 -0.06 0 0 0.15zm-0.17 0l0.07 0 0 -0.15 -0.07 0 0 0.15zm-0.17 0l0.07 0 0 -0.15 -0.07 0 0 0.15zm-0.16 0l0.06 0 0 -0.15 -0.06 0 0 0.15zm0.58 0.49l0 -0.06 0.05 0 0 -0.29 -0.71 0 0 0.29 0.06 0 0 0.06 0.6 0zm-0.66 -0.01l0 0.01c0,0.03 0.03,0.06 0.06,0.06l0.6 0c0.03,0 0.05,-0.03 0.05,-0.06l0 -0.01c0.03,0 0.06,-0.02 0.06,-0.05l0 -0.29c0,-0.03 -0.03,-0.05 -0.06,-0.05l-0.71 0c-0.03,0 -0.05,0.02 -0.05,0.05l0 0.29c0,0.03 0.02,0.05 0.05,0.05zm0.33 -0.1l-0.1 0c-0.01,0 -0.02,0 -0.02,-0.01l0 -0.18c0,-0.01 0.01,-0.01 0.02,-0.01l0.1 0c0,0 0.01,0 0.01,0.01l0 0.18c0,0.01 -0.01,0.01 -0.01,0.01zm0.16 0l-0.1 0c-0.01,0 -0.01,0 -0.01,-0.01l0 -0.18c0,-0.01 0,-0.01 0.01,-0.01l0.1 0c0.01,0 0.02,0 0.02,0.01l0 0.18c0,0.01 -0.01,0.01 -0.02,0.01zm0.17 0l-0.1 0c-0.01,0 -0.02,0 -0.02,-0.01l0 -0.18c0,-0.01 0.01,-0.01 0.02,-0.01l0.1 0c0.01,0 0.02,0 0.02,0.01l0 0.18c0,0.01 -0.01,0.01 -0.02,0.01zm-0.08 -0.03l0.06 0 0 -0.14 -0.06 0 0 0.14zm-0.17 0l0.07 0 0 -0.14 -0.07 0 0 0.14zm-0.17 0l0.07 0 0 -0.14 -0.07 0 0 0.14zm-0.16 0l0.06 0 0 -0.14 -0.06 0 0 0.14z"/>
 </g>
</svg>
