<?xml version="1.0" encoding="UTF-8"?>
<!DOCTYPE svg PUBLIC "-//W3C//DTD SVG 1.1//EN" "http://www.w3.org/Graphics/SVG/1.1/DTD/svg11.dtd">
<!-- Creator: CorelDRAW 2017 -->
<svg xmlns="http://www.w3.org/2000/svg" xml:space="preserve" width="30px" height="30px" version="1.1" style="shape-rendering:geometricPrecision; text-rendering:geometricPrecision; image-rendering:optimizeQuality; fill-rule:evenodd; clip-rule:evenodd"
viewBox="0 0 0.65 0.65"
 xmlns:xlink="http://www.w3.org/1999/xlink">
 <defs>
  <style type="text/css">
   <![CDATA[
    .fil0 {fill:white}
   ]]>
  </style>
 </defs>
 <g id="Layer_x0020_1">
  <metadata id="CorelCorpID_0Corel-Layer"/>
  <path class="fil0" d="M0.33 0.01l-0.2 0.19 -0.13 0 0 0.25 0.13 0 0.2 0.19c0.01,0.02 0.03,0.01 0.03,-0.01l0 -0.61c0,-0.02 -0.02,-0.03 -0.03,-0.01zm0.1 0.48c-0.03,0 -0.03,-0.05 0,-0.05 0.11,0 0.11,-0.22 0,-0.22 -0.03,0 -0.03,-0.04 0,-0.04 0.18,0 0.18,0.31 0,0.31zm-0.01 0.09c-0.03,0 -0.03,-0.04 0,-0.04 0.25,0 0.25,-0.41 0,-0.41 -0.03,0 -0.03,-0.05 0,-0.05 0.31,0 0.31,0.5 0,0.5zm-0.38 -0.34l0.08 0 0 0.17 -0.08 0 0 -0.17zm0.28 0.33l-0.16 -0.15 0 -0.19 0.16 -0.15 0 0.49z"/>
 </g>
</svg>
