<?xml version="1.0" encoding="UTF-8"?>
<!DOCTYPE svg PUBLIC "-//W3C//DTD SVG 1.1//EN" "http://www.w3.org/Graphics/SVG/1.1/DTD/svg11.dtd">
<!-- Creator: CorelDRAW 2017 -->
<svg xmlns="http://www.w3.org/2000/svg" xml:space="preserve" width="30px" height="30px" version="1.1" style="shape-rendering:geometricPrecision; text-rendering:geometricPrecision; image-rendering:optimizeQuality; fill-rule:evenodd; clip-rule:evenodd"
viewBox="0 0 0.5 0.5"
 xmlns:xlink="http://www.w3.org/1999/xlink">
 <defs>
  <style type="text/css">
   <![CDATA[
    .fil0 {fill:white}
   ]]>
  </style>
 </defs>
 <g id="Layer_x0020_1">
  <metadata id="CorelCorpID_0Corel-Layer"/>
  <path class="fil0" d="M0 0.47c0,0.01 0.01,0.03 0.03,0.03 0.06,0 0.12,0 0.17,0 0.02,0 0.03,-0.02 0.03,-0.03l0 -0.05 -0.03 0.03 0 0.02c-0.05,0 -0.11,0 -0.17,0l0 -0.4 0.06 0 0 -0.04c0.01,0 0.04,0 0.06,0l0 0.04 0.05 0 0 0.11 0.03 -0.03 0 -0.08c0,-0.02 -0.01,-0.04 -0.03,-0.04l-0.02 0c0,-0.02 -0.01,-0.03 -0.03,-0.03 -0.02,0 -0.05,0 -0.06,0 -0.02,0 -0.04,0.01 -0.04,0.03l-0.02 0c-0.02,0 -0.03,0.02 -0.03,0.04l0 0.4zm0.14 -0.18l0.08 0.02 -0.07 0.1c-0.01,0.01 0.01,0.03 0.03,0.01l0.18 -0.14c0.01,0 0.01,-0.02 -0.01,-0.02l-0.07 -0.02 0.07 -0.1c0,-0.02 -0.02,-0.03 -0.03,-0.02l-0.18 0.14c-0.01,0.01 -0.01,0.02 0,0.03zm0.12 0.18c0,0.01 0.02,0.03 0.04,0.03 0.05,0 0.11,0 0.17,0 0.01,0 0.03,-0.02 0.03,-0.03l0 -0.4c0,-0.02 -0.02,-0.04 -0.03,-0.04l-0.03 0c0,-0.02 -0.01,-0.03 -0.03,-0.03 -0.02,0 -0.04,0 -0.06,0 -0.02,0 -0.03,0.01 -0.03,0.03l-0.02 0c-0.02,0 -0.04,0.02 -0.04,0.04l0 0.06 0.04 -0.03 0 -0.03 0.05 0 0 -0.04c0.02,0 0.04,0 0.06,0l0 0.04 0.06 0 0 0.4c-0.06,0 -0.12,0 -0.17,0l0 -0.1 -0.04 0.03 0 0.07z"/>
 </g>
</svg>
