<?xml version="1.0" encoding="UTF-8"?>
<!DOCTYPE svg PUBLIC "-//W3C//DTD SVG 1.1//EN" "http://www.w3.org/Graphics/SVG/1.1/DTD/svg11.dtd">
<!-- Creator: CorelDRAW 2017 -->
<svg xmlns="http://www.w3.org/2000/svg" xml:space="preserve" width="66px" height="86px" version="1.1" style="shape-rendering:geometricPrecision; text-rendering:geometricPrecision; image-rendering:optimizeQuality; fill-rule:evenodd; clip-rule:evenodd"
viewBox="0 0 2.33 3.06"
 xmlns:xlink="http://www.w3.org/1999/xlink">
 <defs>
  <style type="text/css">
   <![CDATA[
    .fil0 {fill:black}
   ]]>
  </style>
 </defs>
 <g id="Layer_x0020_1">
  <metadata id="CorelCorpID_0Corel-Layer"/>
  <path class="fil0" d="M2.01 3.06l-1.69 0c-0.18,0 -0.32,-0.15 -0.32,-0.32l0 -1.05c0,-0.15 0.11,-0.28 0.26,-0.31l0 -0.47c0,-0.5 0.4,-0.91 0.91,-0.91 0.5,0 0.9,0.41 0.9,0.91l0 0.47c0.15,0.03 0.26,0.16 0.26,0.31l0 1.05 0 0c0,0.17 -0.14,0.32 -0.32,0.32zm-0.84 -1.2c-0.16,0 -0.29,0.13 -0.29,0.28 0,0.11 0.06,0.2 0.14,0.25l0 0.32 0.29 0 0 -0.32c0.08,-0.05 0.14,-0.14 0.14,-0.25 0,-0.15 -0.13,-0.28 -0.28,-0.28zm0 -1.39c-0.24,0 -0.44,0.2 -0.44,0.44l0 0.46 0.87 0 0 -0.46c0,-0.24 -0.19,-0.44 -0.43,-0.44z"/>
 </g>
</svg>
