<?xml version="1.0" encoding="iso-8859-1"?>
<!--Generator: Adobe Illustrator 19.0.0, SVG Export Plug-In . SVG Version: 6.00 Build 0)-->
<svg version="1.1" id="Capa_1" xmlns="http://www.w3.org/2000/svg" xmlns:xlink="http://www.w3.org/1999/xlink" x="0px" y="0px" role="img" viewBox="0 0 512 512">
    <g>
        <g>
            <path fill="#ffffff" d="M437.02,74.98C388.667,26.629,324.38,0,256,0S123.333,26.629,74.98,74.98C26.629,123.333,0,187.62,0,256
			s26.629,132.667,74.98,181.02C123.333,485.371,187.62,512,256,512c46.813,0,92.618-12.758,132.462-36.894
			c9.448-5.724,12.467-18.021,6.744-27.469c-5.723-9.449-18.021-12.467-27.468-6.744c-32.028,19.402-68.642,30.083-106.221,31.036
			l86.304-155.539c11.486-17.371,18.18-38.175,18.18-60.513c0-26.512-9.428-50.864-25.107-69.878H460.36
			c7.543,21.962,11.64,45.511,11.64,70c0,42.589-12.665,84.044-36.626,119.884c-6.139,9.183-3.672,21.604,5.511,27.742
			c9.183,6.14,21.604,3.673,27.742-5.51C497.001,355.674,512,306.53,512,256C512,187.62,485.371,123.333,437.02,74.98z
			 M217.626,468.586C116.765,450.428,40,362.01,40,256c0-38.525,10.138-74.726,27.886-106.077l87.092,149.478
			c16.897,39.07,55.819,66.477,101.022,66.477c6.683,0,13.228-0.599,19.585-1.747L217.626,468.586z M317.586,289.13
			c-0.77,0.933-1.466,1.949-2.074,3.045l-1.896,3.418c-12.642,18.284-33.753,30.285-57.615,30.285
			c-24.406,0-45.934-12.555-58.466-31.545c-0.45-1.651-1.121-3.272-2.023-4.821l-4.626-7.94c-3.151-7.958-4.884-16.627-4.884-25.694
			c0-38.598,31.402-70,70-70c0.276,0,0.552,0.002,0.827,0.005C257.541,185.96,258.266,186,259,186h1.154
			C296.826,188.157,326,218.675,326,255.878C326,267.905,322.951,279.232,317.586,289.13z M261.204,146
			c-1.725-0.081-3.46-0.122-5.204-0.122c-46.909,0-87.053,29.514-102.84,70.948L93.296,114.079C132.922,68.708,191.171,40,256,40
			c78.96,0,148.161,42.588,185.838,106H261.204z"/>
        </g>
    </g>
</svg>
